<mxfile host="app.diagrams.net" modified="2023-05-04T17:58:21.854Z" agent="Mozilla/5.0 (Macintosh; Intel Mac OS X 10_15_7) AppleWebKit/605.1.15 (KHTML, like Gecko) Version/16.4 Safari/605.1.15" etag="2t-lXV9o-Mn_wCTuL2X2" version="21.2.4" type="device">
  <diagram name="Page-1" id="2YBvvXClWsGukQMizWep">
    <mxGraphModel dx="1945" dy="728" grid="1" gridSize="10" guides="1" tooltips="1" connect="1" arrows="1" fold="1" page="1" pageScale="1" pageWidth="850" pageHeight="1100" math="0" shadow="0">
      <root>
        <mxCell id="0" />
        <mxCell id="1" parent="0" />
        <mxCell id="Tae_6Wudc8X_0bs11zX3-1" value="user_interface" style="shape=umlLifeline;perimeter=lifelinePerimeter;whiteSpace=wrap;html=1;container=0;dropTarget=0;collapsible=0;recursiveResize=0;outlineConnect=0;portConstraint=eastwest;newEdgeStyle={&quot;edgeStyle&quot;:&quot;elbowEdgeStyle&quot;,&quot;elbow&quot;:&quot;vertical&quot;,&quot;curved&quot;:0,&quot;rounded&quot;:0};" vertex="1" parent="1">
          <mxGeometry x="20" y="40" width="100" height="430" as="geometry" />
        </mxCell>
        <mxCell id="Tae_6Wudc8X_0bs11zX3-2" value="" style="html=1;verticalAlign=bottom;startArrow=oval;endArrow=block;startSize=8;edgeStyle=elbowEdgeStyle;elbow=vertical;curved=0;rounded=0;" edge="1" parent="Tae_6Wudc8X_0bs11zX3-1">
          <mxGeometry relative="1" as="geometry">
            <mxPoint x="-15" y="70" as="sourcePoint" />
            <mxPoint x="45" y="70.33333333333337" as="targetPoint" />
          </mxGeometry>
        </mxCell>
        <mxCell id="Tae_6Wudc8X_0bs11zX3-3" value="System" style="shape=umlLifeline;perimeter=lifelinePerimeter;whiteSpace=wrap;html=1;container=0;dropTarget=0;collapsible=0;recursiveResize=0;outlineConnect=0;portConstraint=eastwest;newEdgeStyle={&quot;edgeStyle&quot;:&quot;elbowEdgeStyle&quot;,&quot;elbow&quot;:&quot;vertical&quot;,&quot;curved&quot;:0,&quot;rounded&quot;:0};" vertex="1" parent="1">
          <mxGeometry x="400" y="40" width="100" height="440" as="geometry" />
        </mxCell>
        <mxCell id="Tae_6Wudc8X_0bs11zX3-4" value="" style="html=1;points=[];perimeter=orthogonalPerimeter;outlineConnect=0;targetShapes=umlLifeline;portConstraint=eastwest;newEdgeStyle={&quot;edgeStyle&quot;:&quot;elbowEdgeStyle&quot;,&quot;elbow&quot;:&quot;vertical&quot;,&quot;curved&quot;:0,&quot;rounded&quot;:0};" vertex="1" parent="Tae_6Wudc8X_0bs11zX3-3">
          <mxGeometry x="45" y="80" width="10" height="330" as="geometry" />
        </mxCell>
        <mxCell id="Tae_6Wudc8X_0bs11zX3-5" value="ObsImpLvlImprov(String AirCleanId, int radius)" style="html=1;verticalAlign=bottom;endArrow=block;edgeStyle=elbowEdgeStyle;elbow=vertical;curved=0;rounded=0;" edge="1" parent="1" source="Tae_6Wudc8X_0bs11zX3-1" target="Tae_6Wudc8X_0bs11zX3-4">
          <mxGeometry x="-0.0009" relative="1" as="geometry">
            <mxPoint x="95" y="120" as="sourcePoint" />
            <Array as="points">
              <mxPoint x="180" y="120" />
            </Array>
            <mxPoint as="offset" />
          </mxGeometry>
        </mxCell>
        <mxCell id="Tae_6Wudc8X_0bs11zX3-6" value="int : avgATMO" style="html=1;verticalAlign=bottom;endArrow=open;dashed=1;endSize=8;edgeStyle=elbowEdgeStyle;elbow=vertical;curved=0;rounded=0;" edge="1" parent="1" source="Tae_6Wudc8X_0bs11zX3-4" target="Tae_6Wudc8X_0bs11zX3-1">
          <mxGeometry relative="1" as="geometry">
            <mxPoint x="95" y="280" as="targetPoint" />
            <Array as="points">
              <mxPoint x="310" y="450" />
              <mxPoint x="380" y="380" />
              <mxPoint x="290" y="340" />
              <mxPoint x="330" y="320" />
              <mxPoint x="190" y="280" />
            </Array>
          </mxGeometry>
        </mxCell>
        <mxCell id="Tae_6Wudc8X_0bs11zX3-7" value="dataBase" style="shape=umlLifeline;perimeter=lifelinePerimeter;whiteSpace=wrap;html=1;container=0;dropTarget=0;collapsible=0;recursiveResize=0;outlineConnect=0;portConstraint=eastwest;newEdgeStyle={&quot;edgeStyle&quot;:&quot;elbowEdgeStyle&quot;,&quot;elbow&quot;:&quot;vertical&quot;,&quot;curved&quot;:0,&quot;rounded&quot;:0};" vertex="1" parent="1">
          <mxGeometry x="740" y="40" width="100" height="440" as="geometry" />
        </mxCell>
        <mxCell id="Tae_6Wudc8X_0bs11zX3-8" value="" style="html=1;points=[];perimeter=orthogonalPerimeter;outlineConnect=0;targetShapes=umlLifeline;portConstraint=eastwest;newEdgeStyle={&quot;edgeStyle&quot;:&quot;elbowEdgeStyle&quot;,&quot;elbow&quot;:&quot;vertical&quot;,&quot;curved&quot;:0,&quot;rounded&quot;:0};" vertex="1" parent="Tae_6Wudc8X_0bs11zX3-7">
          <mxGeometry x="45" y="90" width="10" height="40" as="geometry" />
        </mxCell>
        <mxCell id="Tae_6Wudc8X_0bs11zX3-9" value="" style="html=1;points=[];perimeter=orthogonalPerimeter;outlineConnect=0;targetShapes=umlLifeline;portConstraint=eastwest;newEdgeStyle={&quot;edgeStyle&quot;:&quot;elbowEdgeStyle&quot;,&quot;elbow&quot;:&quot;vertical&quot;,&quot;curved&quot;:0,&quot;rounded&quot;:0};" vertex="1" parent="Tae_6Wudc8X_0bs11zX3-7">
          <mxGeometry x="45" y="160" width="10" height="40" as="geometry" />
        </mxCell>
        <mxCell id="Tae_6Wudc8X_0bs11zX3-27" value="" style="html=1;points=[];perimeter=orthogonalPerimeter;outlineConnect=0;targetShapes=umlLifeline;portConstraint=eastwest;newEdgeStyle={&quot;edgeStyle&quot;:&quot;elbowEdgeStyle&quot;,&quot;elbow&quot;:&quot;vertical&quot;,&quot;curved&quot;:0,&quot;rounded&quot;:0};" vertex="1" parent="Tae_6Wudc8X_0bs11zX3-7">
          <mxGeometry x="45" y="220" width="10" height="40" as="geometry" />
        </mxCell>
        <mxCell id="Tae_6Wudc8X_0bs11zX3-10" value="" style="endArrow=classic;html=1;rounded=0;" edge="1" parent="1" source="Tae_6Wudc8X_0bs11zX3-4" target="Tae_6Wudc8X_0bs11zX3-8">
          <mxGeometry width="50" height="50" relative="1" as="geometry">
            <mxPoint x="470" y="140" as="sourcePoint" />
            <mxPoint x="660" y="140" as="targetPoint" />
            <Array as="points">
              <mxPoint x="700" y="130" />
            </Array>
          </mxGeometry>
        </mxCell>
        <mxCell id="Tae_6Wudc8X_0bs11zX3-11" value="getAirCleaner(AirCleanID)" style="edgeLabel;html=1;align=center;verticalAlign=middle;resizable=0;points=[];" vertex="1" connectable="0" parent="Tae_6Wudc8X_0bs11zX3-10">
          <mxGeometry x="-0.4123" y="2" relative="1" as="geometry">
            <mxPoint x="56" y="-8" as="offset" />
          </mxGeometry>
        </mxCell>
        <mxCell id="Tae_6Wudc8X_0bs11zX3-12" value="" style="endArrow=open;html=1;rounded=0;endFill=0;dashed=1;" edge="1" parent="1" source="Tae_6Wudc8X_0bs11zX3-8" target="Tae_6Wudc8X_0bs11zX3-4">
          <mxGeometry width="50" height="50" relative="1" as="geometry">
            <mxPoint x="520" y="215" as="sourcePoint" />
            <mxPoint x="570" y="165" as="targetPoint" />
            <Array as="points">
              <mxPoint x="580" y="170" />
            </Array>
          </mxGeometry>
        </mxCell>
        <mxCell id="Tae_6Wudc8X_0bs11zX3-13" value="AC : AirCleaner" style="edgeLabel;html=1;align=center;verticalAlign=middle;resizable=0;points=[];" vertex="1" connectable="0" parent="Tae_6Wudc8X_0bs11zX3-12">
          <mxGeometry x="0.2794" y="1" relative="1" as="geometry">
            <mxPoint x="37" y="-11" as="offset" />
          </mxGeometry>
        </mxCell>
        <mxCell id="Tae_6Wudc8X_0bs11zX3-14" value="" style="endArrow=classic;html=1;rounded=0;" edge="1" parent="1" target="Tae_6Wudc8X_0bs11zX3-7">
          <mxGeometry width="50" height="50" relative="1" as="geometry">
            <mxPoint x="455" y="199.9999999999999" as="sourcePoint" />
            <mxPoint x="725" y="199.9999999999999" as="targetPoint" />
            <Array as="points" />
          </mxGeometry>
        </mxCell>
        <mxCell id="Tae_6Wudc8X_0bs11zX3-15" value="&lt;font style=&quot;font-size: 10px;&quot;&gt;getMeasuresAroundAtMoment(ac.Coordinates, radius, ac.startDate )&lt;/font&gt;" style="edgeLabel;html=1;align=center;verticalAlign=middle;resizable=0;points=[];" vertex="1" connectable="0" parent="Tae_6Wudc8X_0bs11zX3-14">
          <mxGeometry x="-0.4123" y="2" relative="1" as="geometry">
            <mxPoint x="67" y="-8" as="offset" />
          </mxGeometry>
        </mxCell>
        <mxCell id="Tae_6Wudc8X_0bs11zX3-16" value="" style="endArrow=open;html=1;rounded=0;endFill=0;dashed=1;" edge="1" parent="1" source="Tae_6Wudc8X_0bs11zX3-9" target="Tae_6Wudc8X_0bs11zX3-4">
          <mxGeometry width="50" height="50" relative="1" as="geometry">
            <mxPoint x="725" y="240" as="sourcePoint" />
            <mxPoint x="455" y="240" as="targetPoint" />
            <Array as="points">
              <mxPoint x="580" y="240" />
            </Array>
          </mxGeometry>
        </mxCell>
        <mxCell id="Tae_6Wudc8X_0bs11zX3-17" value="measuresBefore:Vector&amp;lt;Measure&amp;gt;" style="edgeLabel;html=1;align=center;verticalAlign=middle;resizable=0;points=[];" vertex="1" connectable="0" parent="Tae_6Wudc8X_0bs11zX3-16">
          <mxGeometry x="0.2794" y="1" relative="1" as="geometry">
            <mxPoint x="37" y="-11" as="offset" />
          </mxGeometry>
        </mxCell>
        <mxCell id="Tae_6Wudc8X_0bs11zX3-18" value="" style="rounded=0;whiteSpace=wrap;html=1;" vertex="1" parent="1">
          <mxGeometry x="450" y="390" width="10" height="40" as="geometry" />
        </mxCell>
        <mxCell id="Tae_6Wudc8X_0bs11zX3-19" value="" style="endArrow=classic;html=1;rounded=0;exitX=0.967;exitY=0.083;exitDx=0;exitDy=0;entryX=1.111;entryY=0.858;entryDx=0;entryDy=0;entryPerimeter=0;exitPerimeter=0;" edge="1" parent="1">
          <mxGeometry width="50" height="50" relative="1" as="geometry">
            <mxPoint x="459.9999999999996" y="394.6599999999999" as="sourcePoint" />
            <mxPoint x="461.4400000000001" y="425.6599999999999" as="targetPoint" />
            <Array as="points">
              <mxPoint x="470" y="394" />
              <mxPoint x="470" y="426" />
            </Array>
          </mxGeometry>
        </mxCell>
        <mxCell id="Tae_6Wudc8X_0bs11zX3-20" value="&lt;font style=&quot;font-size: 10px;&quot;&gt;double : calculate_meanATMO(Vector&amp;lt;Measure&amp;gt; measuresAfter)&lt;/font&gt;" style="edgeLabel;html=1;align=center;verticalAlign=middle;resizable=0;points=[];" vertex="1" connectable="0" parent="Tae_6Wudc8X_0bs11zX3-19">
          <mxGeometry x="0.0185" y="2" relative="1" as="geometry">
            <mxPoint x="148" as="offset" />
          </mxGeometry>
        </mxCell>
        <mxCell id="Tae_6Wudc8X_0bs11zX3-21" value="" style="rounded=0;whiteSpace=wrap;html=1;" vertex="1" parent="1">
          <mxGeometry x="450" y="320" width="10" height="40" as="geometry" />
        </mxCell>
        <mxCell id="Tae_6Wudc8X_0bs11zX3-22" value="" style="endArrow=classic;html=1;rounded=0;entryX=1.056;entryY=0.904;entryDx=0;entryDy=0;entryPerimeter=0;exitX=1;exitY=0.126;exitDx=0;exitDy=0;exitPerimeter=0;" edge="1" parent="1" source="Tae_6Wudc8X_0bs11zX3-21" target="Tae_6Wudc8X_0bs11zX3-21">
          <mxGeometry width="50" height="50" relative="1" as="geometry">
            <mxPoint x="460" y="325" as="sourcePoint" />
            <mxPoint x="461" y="355.5" as="targetPoint" />
            <Array as="points">
              <mxPoint x="470" y="325" />
              <mxPoint x="470" y="356" />
            </Array>
          </mxGeometry>
        </mxCell>
        <mxCell id="Tae_6Wudc8X_0bs11zX3-23" value="&lt;font style=&quot;font-size: 10px;&quot;&gt;double : calculate_meanATMO(Vector&amp;lt;Measure&amp;gt; measuresBefore)&lt;/font&gt;" style="edgeLabel;html=1;align=center;verticalAlign=middle;resizable=0;points=[];" vertex="1" connectable="0" parent="Tae_6Wudc8X_0bs11zX3-22">
          <mxGeometry x="0.0185" y="2" relative="1" as="geometry">
            <mxPoint x="156" y="-1" as="offset" />
          </mxGeometry>
        </mxCell>
        <mxCell id="Tae_6Wudc8X_0bs11zX3-28" value="" style="endArrow=classic;html=1;rounded=0;" edge="1" parent="1" source="Tae_6Wudc8X_0bs11zX3-4">
          <mxGeometry width="50" height="50" relative="1" as="geometry">
            <mxPoint x="460" y="270" as="sourcePoint" />
            <mxPoint x="785" y="270" as="targetPoint" />
            <Array as="points" />
          </mxGeometry>
        </mxCell>
        <mxCell id="Tae_6Wudc8X_0bs11zX3-29" value="&lt;font style=&quot;font-size: 10px;&quot;&gt;getMeasuresAroundAtMoment(ac.Coordinates, radius, ac.stopDate )&lt;/font&gt;" style="edgeLabel;html=1;align=center;verticalAlign=middle;resizable=0;points=[];" vertex="1" connectable="0" parent="Tae_6Wudc8X_0bs11zX3-28">
          <mxGeometry x="-0.4123" y="2" relative="1" as="geometry">
            <mxPoint x="67" y="-8" as="offset" />
          </mxGeometry>
        </mxCell>
        <mxCell id="Tae_6Wudc8X_0bs11zX3-31" value="" style="endArrow=open;html=1;rounded=0;endFill=0;dashed=1;" edge="1" parent="1">
          <mxGeometry width="50" height="50" relative="1" as="geometry">
            <mxPoint x="785" y="295" as="sourcePoint" />
            <mxPoint x="455" y="295" as="targetPoint" />
            <Array as="points">
              <mxPoint x="580" y="295" />
            </Array>
          </mxGeometry>
        </mxCell>
        <mxCell id="Tae_6Wudc8X_0bs11zX3-32" value="measuresAfter:Vector&amp;lt;Measure&amp;gt;" style="edgeLabel;html=1;align=center;verticalAlign=middle;resizable=0;points=[];" vertex="1" connectable="0" parent="Tae_6Wudc8X_0bs11zX3-31">
          <mxGeometry x="0.2794" y="1" relative="1" as="geometry">
            <mxPoint x="37" y="-11" as="offset" />
          </mxGeometry>
        </mxCell>
      </root>
    </mxGraphModel>
  </diagram>
</mxfile>
